<?xml version="1.0" standalone="no"?>
<!DOCTYPE svg PUBLIC "-//W3C//DTD SVG 20010904//EN"
 "http://www.w3.org/TR/2001/REC-SVG-20010904/DTD/svg10.dtd">
<svg version="1.0" xmlns="http://www.w3.org/2000/svg"
 width="16.000000pt" height="16.000000pt" viewBox="0 0 16.000000 16.000000"
 preserveAspectRatio="xMidYMid meet">
<metadata>
Created by potrace 1.11, written by Peter Selinger 2001-2013
</metadata>
<g transform="translate(0.000000,16.000000) scale(0.002067,-0.002067)"
fill="#000000" stroke="none">
<path d="M3610 7734 c-19 -2 -84 -9 -145 -15 -357 -34 -765 -139 -1104 -283
-240 -102 -401 -190 -631 -341 -887 -587 -1500 -1527 -1675 -2570 -41 -244
-50 -365 -50 -665 1 -303 12 -429 61 -700 204 -1118 922 -2112 1932 -2673 447
-249 947 -405 1482 -463 174 -19 563 -21 735 -5 767 75 1475 359 2065 830 110
88 298 258 314 284 9 15 -35 63 -316 344 l-327 326 -81 -76 c-426 -401 -974
-666 -1571 -759 -123 -19 -185 -22 -424 -22 -299 -1 -356 4 -605 54 -739 148
-1421 608 -1843 1244 -156 235 -256 439 -343 701 -356 1075 -72 2243 737 3031
465 452 1054 732 1714 815 149 19 542 16 695 -5 626 -85 1153 -328 1619 -747
l103 -92 324 324 c178 178 324 328 324 334 0 5 -53 58 -118 117 -535 488
-1162 806 -1872 948 -229 45 -393 61 -685 65 -154 2 -296 1 -315 -1z"/>
</g>
</svg>
